<svg xmlns="http://www.w3.org/2000/svg" width="30.829" height="30.829" viewBox="0 0 30.829 30.829">
  <g id="icon_settings_active" transform="translate(-0.5 -0.5)">
    <path id="Path_10" data-name="Path 10" d="M21.362,17.431A3.931,3.931,0,1,1,17.431,13.5,3.931,3.931,0,0,1,21.362,17.431Z" transform="translate(-1.517 -1.517)" fill="none" stroke="#11c9b7" stroke-linecap="round" stroke-linejoin="round" stroke-width="2"/>
    <path id="Path_11" data-name="Path 11" d="M25.612,19.846a2.162,2.162,0,0,0,.432,2.385l.079.079a2.622,2.622,0,1,1-3.708,3.708l-.079-.079a2.18,2.18,0,0,0-3.7,1.546v.223a2.621,2.621,0,0,1-5.242,0V27.59a2.162,2.162,0,0,0-1.415-1.979,2.162,2.162,0,0,0-2.385.432l-.079.079a2.622,2.622,0,1,1-3.708-3.708l.079-.079a2.18,2.18,0,0,0-1.546-3.7H4.121a2.621,2.621,0,1,1,0-5.242h.118a2.162,2.162,0,0,0,1.979-1.415A2.162,2.162,0,0,0,5.785,9.6L5.706,9.52A2.622,2.622,0,1,1,9.415,5.811l.079.079a2.162,2.162,0,0,0,2.385.432h.1a2.162,2.162,0,0,0,1.31-1.979V4.121a2.621,2.621,0,1,1,5.242,0v.118a2.18,2.18,0,0,0,3.7,1.546l.079-.079a2.622,2.622,0,1,1,3.708,3.708l-.079.079a2.162,2.162,0,0,0-.432,2.385v.1a2.162,2.162,0,0,0,1.979,1.31h.223a2.621,2.621,0,0,1,0,5.242H27.59a2.162,2.162,0,0,0-1.979,1.31Z" fill="none" stroke="#11c9b7" stroke-linecap="round" stroke-linejoin="round" stroke-width="2"/>
  </g>
</svg>
