<svg xmlns="http://www.w3.org/2000/svg" width="29.432" height="24.041" viewBox="0 0 29.432 24.041">
  <g id="icon_new_active" transform="translate(-2.5 -11.2)">
    <g id="Group_1" data-name="Group 1" transform="translate(2.5 11.2)">
      <path id="Path_8" data-name="Path 8" d="M41.224,35.206h-2.7v-2.7a1.611,1.611,0,0,0-3.222,0v2.7h-2.7A1.6,1.6,0,0,0,31,36.817a1.587,1.587,0,0,0,1.611,1.611h2.7v2.7a1.587,1.587,0,0,0,1.611,1.611,1.6,1.6,0,0,0,1.611-1.611v-2.7h2.7a1.611,1.611,0,0,0,0-3.222Z" transform="translate(-22.17 -24.797)" fill="#11c9b7"/>
      <path id="Path_9" data-name="Path 9" d="M19.911,11.2H14.521a12.021,12.021,0,0,0,0,24.041h5.391a12.021,12.021,0,1,0,0-24.041Zm0,20.788H14.521a8.76,8.76,0,0,1-8.768-8.768h0a8.779,8.779,0,0,1,8.768-8.768h5.391a8.76,8.76,0,0,1,8.768,8.768h0A8.76,8.76,0,0,1,19.911,31.988Z" transform="translate(-2.5 -11.2)" fill="#11c9b7"/>
    </g>
  </g>
</svg>
