<svg xmlns="http://www.w3.org/2000/svg" width="29" height="23.688" viewBox="0 0 29 23.688">
  <g id="icon_new_unactive" transform="translate(-2.5 -11.2)">
    <g id="Group_1" data-name="Group 1" transform="translate(2.5 11.2)">
      <path id="Path_8" data-name="Path 8" d="M43.862,36.318H40.471V32.927a2.027,2.027,0,0,0-4.053,0v3.391H33.027A2.013,2.013,0,0,0,31,38.344a2,2,0,0,0,2.027,2.027h3.391v3.391a2,2,0,0,0,2.027,2.027,2.013,2.013,0,0,0,2.027-2.027V40.371h3.391a2.027,2.027,0,1,0,0-4.053Z" transform="translate(-23.919 -26.5)" fill="#dcdcdc"/>
      <path id="Path_9" data-name="Path 9" d="M19.656,11.2H14.344a11.844,11.844,0,0,0,0,23.688h5.312a11.844,11.844,0,1,0,0-23.688Zm0,20.483H14.344a8.631,8.631,0,0,1-8.639-8.639h0a8.651,8.651,0,0,1,8.639-8.639h5.312a8.631,8.631,0,0,1,8.639,8.639h0A8.631,8.631,0,0,1,19.656,31.683Z" transform="translate(-2.5 -11.2)" fill="#dcdcdc"/>
    </g>
  </g>
</svg>
