<svg xmlns="http://www.w3.org/2000/svg" width="29.486" height="28.246" viewBox="0 0 29.486 28.246">
  <g id="icon_martillo_active" transform="translate(273.716 261.123)">
    <path id="Path_1" data-name="Path 1" d="M28.259,11.335,25.889,8.966a.6.6,0,0,0-.419-.173h-.592V8.2a.592.592,0,0,0-.173-.419L19.966,3.042A7.46,7.46,0,0,0,14.216.5a7.278,7.278,0,0,0-5.75,2.542.593.593,0,0,0,.419,1.012c4.778,0,5.331,2.028,5.331,3.554A4.359,4.359,0,0,1,12.665,10.7c-.009.008-.014.02-.024.028s-.02.011-.028.019L.9,22.459a3.081,3.081,0,1,0,4.424,4.287L16.392,14.567A8.555,8.555,0,0,1,20.139,12.7v.828a.6.6,0,0,0,.173.419l2.962,2.962a.6.6,0,0,0,.419.173h.02a.588.588,0,0,0,.425-.2l4.146-4.739A.592.592,0,0,0,28.259,11.335ZM4.441,25.949a1.871,1.871,0,0,1-1.385.614A1.891,1.891,0,0,1,1.185,24.62,1.856,1.856,0,0,1,1.733,23.3L13.031,12l2.144,2.144ZM23.665,15.626l-2.341-2.341v-.938a.6.6,0,0,0-.173-.419c-1.118-1.118-3.69.423-5.1,1.419l-2.173-2.173A5.287,5.287,0,0,0,15.4,7.608c0-2.773-1.7-4.341-5.074-4.672a5.818,5.818,0,0,1,3.889-1.251,6.32,6.32,0,0,1,4.912,2.2l4.566,4.564v.941a.593.593,0,0,0,.592.592h.939l1.8,1.8Z" transform="translate(-273.216 -261.123)" fill="#11c9b7" stroke="#11c9b7" stroke-width="1"/>
  </g>
</svg>
