<svg xmlns="http://www.w3.org/2000/svg" width="149.913" height="28" viewBox="0 0 149.913 28">
  <g id="Francapp_logo" data-name="Francapp logo" transform="translate(-73.087 -79)">
    <text id="Francapp." transform="translate(109 103)" fill="#282751" font-size="24" font-family='Trebuchet MS' font-weight="700" letter-spacing="0.006em"><tspan x="0" y="0">Francapp</tspan></text>
    <g id="noun_hulk_2573736" transform="translate(67.087 74)">
      <g id="Group_4" data-name="Group 4" transform="translate(6 5)">
        <path id="Path_12" data-name="Path 12" d="M25.945,5A2.944,2.944,0,0,0,23,7.945v4.417a2.945,2.945,0,1,0,5.89,0V7.945A2.944,2.944,0,0,0,25.945,5Zm0,1.472a1.4,1.4,0,0,1,1.472,1.472v4.417a1.472,1.472,0,1,1-2.945,0V7.945A1.4,1.4,0,0,1,25.945,6.472Z" transform="translate(-10.485 -5)" fill="#11c9b7"/>
        <path id="Path_13" data-name="Path 13" d="M31.945,6A2.944,2.944,0,0,0,29,8.945v4.417a2.945,2.945,0,1,0,5.89,0V8.945A2.944,2.944,0,0,0,31.945,6Zm0,1.472a1.4,1.4,0,0,1,1.472,1.472v4.417a1.472,1.472,0,0,1-2.945,0V8.945A1.4,1.4,0,0,1,31.945,7.472Z" transform="translate(-12.067 -5.264)" fill="#11c9b7"/>
        <path id="Path_14" data-name="Path 14" d="M19.945,5A2.944,2.944,0,0,0,17,7.945v4.417a2.945,2.945,0,1,0,5.89,0V7.945A2.944,2.944,0,0,0,19.945,5Zm0,1.472a1.4,1.4,0,0,1,1.472,1.472v4.417a1.472,1.472,0,1,1-2.945,0V7.945A1.4,1.4,0,0,1,19.945,6.472Z" transform="translate(-8.902 -5)" fill="#11c9b7"/>
        <path id="Path_15" data-name="Path 15" d="M13.945,5A2.944,2.944,0,0,0,11,7.945v2.072a.736.736,0,1,0,1.472,0V7.945a1.4,1.4,0,0,1,1.472-1.472,1.472,1.472,0,0,1,1.472,1.472v4.344a1.5,1.5,0,0,1-1.208,1.48.737.737,0,1,0,.208,1.458,2.946,2.946,0,0,0,2.473-2.938V7.945A2.958,2.958,0,0,0,13.945,5Z" transform="translate(-7.319 -5)" fill="#11c9b7"/>
        <path id="Path_16" data-name="Path 16" d="M22.285,18.5a13.731,13.731,0,0,0-3.69.383,3.6,3.6,0,0,0-.732.283,1.418,1.418,0,0,0-.256.178.369.369,0,1,0,.521.521s-.007,0,.089-.052a3.018,3.018,0,0,1,.579-.223,13.153,13.153,0,0,1,3.488-.353,13.153,13.153,0,0,1,3.488.353,2.873,2.873,0,0,1,.579.223c.1.052.089.052.089.052a.369.369,0,1,0,.521-.521,1.418,1.418,0,0,0-.256-.178,3.6,3.6,0,0,0-.732-.283A13.731,13.731,0,0,0,22.285,18.5Z" transform="translate(-9.033 -8.561)" fill="#11c9b7"/>
        <path id="Path_17" data-name="Path 17" d="M11.694,10.213a6.2,6.2,0,0,0-1.382.436c-.548.221-1.168.505-1.76.811a13.049,13.049,0,0,0-1.6.949,3.69,3.69,0,0,0-.585.5,1.1,1.1,0,0,0-.37.822v5.273l.038.113A15.617,15.617,0,0,0,7.2,21.644a9.216,9.216,0,0,0,3.624,3.791l.155.077h2.393a.736.736,0,0,0,0-1.472H11.386A8.2,8.2,0,0,1,8.48,20.914a13.012,13.012,0,0,1-1.008-2.18V13.89a2.454,2.454,0,0,1,.344-.286,12.062,12.062,0,0,1,1.411-.836c.549-.283,1.136-.553,1.636-.755a7.276,7.276,0,0,1,1.057-.35h.029c-.117.022-.074-.022.066.094a2.691,2.691,0,0,1,.512.62,4.074,4.074,0,0,1,.614,1.874,3.441,3.441,0,0,1-1.115,1.587,10.553,10.553,0,0,1-1.26.954.736.736,0,0,0,.776,1.252,11.921,11.921,0,0,0,1.464-1.107,3.772,3.772,0,0,0,1.607-2.685,5.156,5.156,0,0,0-.838-2.653,3.95,3.95,0,0,0-.83-.982,1.532,1.532,0,0,0-1.252-.4Z" transform="translate(-6 -6.371)" fill="#11c9b7"/>
        <path id="Path_18" data-name="Path 18" d="M34.929,11.986a.74.74,0,0,0-.724.747V24.512H32.722a.736.736,0,0,0,0,1.472h2.219a.739.739,0,0,0,.736-.736V12.722a.739.739,0,0,0-.736-.736Z" transform="translate(-12.855 -6.843)" fill="#11c9b7"/>
        <path id="Path_19" data-name="Path 19" d="M13.172,28.986a.739.739,0,0,0-.691.626l-1.472,8.834a.736.736,0,1,0,1.452.241l1.472-8.834a.719.719,0,0,0,.012-.132.739.739,0,0,0-.736-.736Z" transform="translate(-7.317 -11.327)" fill="#11c9b7"/>
        <path id="Path_20" data-name="Path 20" d="M33.749,28.986h-.015a.739.739,0,0,0-.736.736.711.711,0,0,0,.012.131l1.472,8.834a.736.736,0,1,0,1.452-.241l-1.472-8.834A.739.739,0,0,0,33.749,28.986Z" transform="translate(-13.122 -11.327)" fill="#11c9b7"/>
        <path id="Path_21" data-name="Path 21" d="M22.805,25.492a.37.37,0,0,0-.362.368v1.392l-.6,1.19H19.861a.368.368,0,0,0,0,.736h2.214a.369.369,0,0,0,.329-.2L23.14,27.5a.364.364,0,0,0,.039-.164V25.86a.37.37,0,0,0-.368-.368Z" transform="translate(-9.559 -10.406)" fill="#11c9b7"/>
        <path id="Path_22" data-name="Path 22" d="M23.862,25.492a.37.37,0,0,0-.362.368v1.478a.362.362,0,0,0,.037.164l.736,1.472a.369.369,0,0,0,.331.2h2.214a.368.368,0,1,0,0-.736H24.832l-.6-1.19V25.86a.37.37,0,0,0-.368-.368Z" transform="translate(-10.616 -10.406)" fill="#11c9b7"/>
        <path id="Path_23" data-name="Path 23" d="M25.862,29.492a.37.37,0,0,0-.362.368v2.956a.368.368,0,1,0,.736,0V29.86a.37.37,0,0,0-.368-.368Z" transform="translate(-11.144 -11.461)" fill="#11c9b7"/>
        <path id="Path_24" data-name="Path 24" d="M21.862,29.492a.37.37,0,0,0-.362.368v2.956a.368.368,0,1,0,.736,0V29.86a.37.37,0,0,0-.368-.368Z" transform="translate(-10.089 -11.461)" fill="#11c9b7"/>
      </g>
    </g>
  </g>
</svg>
